<mxfile host="Electron" agent="Mozilla/5.0 (Windows NT 10.0; Win64; x64) AppleWebKit/537.36 (KHTML, like Gecko) draw.io/24.7.17 Chrome/128.0.6613.36 Electron/32.0.1 Safari/537.36" version="24.7.17">
  <diagram id="C5RBs43oDa-KdzZeNtuy" name="Page-1">
    <mxGraphModel dx="2582" dy="1509" grid="1" gridSize="10" guides="1" tooltips="1" connect="1" arrows="0" fold="1" page="1" pageScale="1" pageWidth="827" pageHeight="1169" math="0" shadow="0">
      <root>
        <mxCell id="WIyWlLk6GJQsqaUBKTNV-0" />
        <mxCell id="WIyWlLk6GJQsqaUBKTNV-1" parent="WIyWlLk6GJQsqaUBKTNV-0" />
        <mxCell id="WIyWlLk6GJQsqaUBKTNV-2" value="" style="rounded=0;html=1;jettySize=auto;orthogonalLoop=1;fontSize=11;endArrow=block;endFill=0;endSize=8;strokeWidth=1;shadow=0;labelBackgroundColor=none;edgeStyle=orthogonalEdgeStyle;" parent="WIyWlLk6GJQsqaUBKTNV-1" target="WIyWlLk6GJQsqaUBKTNV-6" edge="1">
          <mxGeometry relative="1" as="geometry">
            <mxPoint x="159" y="512" as="sourcePoint" />
          </mxGeometry>
        </mxCell>
        <mxCell id="WIyWlLk6GJQsqaUBKTNV-4" value="non" style="rounded=0;html=1;jettySize=auto;orthogonalLoop=1;fontSize=11;endArrow=block;endFill=0;endSize=8;strokeWidth=1;shadow=0;labelBackgroundColor=none;edgeStyle=orthogonalEdgeStyle;" parent="WIyWlLk6GJQsqaUBKTNV-1" source="tHZ1R3sbHxkFijD3upq8-24" target="WIyWlLk6GJQsqaUBKTNV-10" edge="1">
          <mxGeometry x="-0.8844" y="20" relative="1" as="geometry">
            <mxPoint as="offset" />
          </mxGeometry>
        </mxCell>
        <mxCell id="WIyWlLk6GJQsqaUBKTNV-5" value="No" style="edgeStyle=orthogonalEdgeStyle;rounded=0;html=1;jettySize=auto;orthogonalLoop=1;fontSize=11;endArrow=block;endFill=0;endSize=8;strokeWidth=1;shadow=0;labelBackgroundColor=none;" parent="WIyWlLk6GJQsqaUBKTNV-1" source="WIyWlLk6GJQsqaUBKTNV-6" target="WIyWlLk6GJQsqaUBKTNV-7" edge="1">
          <mxGeometry y="10" relative="1" as="geometry">
            <mxPoint as="offset" />
          </mxGeometry>
        </mxCell>
        <mxCell id="WIyWlLk6GJQsqaUBKTNV-6" value="Joueur doit&amp;nbsp;&lt;div&gt;jouer&lt;/div&gt;" style="rhombus;whiteSpace=wrap;html=1;shadow=0;fontFamily=Helvetica;fontSize=12;align=center;strokeWidth=1;spacing=6;spacingTop=-4;" parent="WIyWlLk6GJQsqaUBKTNV-1" vertex="1">
          <mxGeometry x="109" y="562" width="100" height="80" as="geometry" />
        </mxCell>
        <mxCell id="tHZ1R3sbHxkFijD3upq8-2" style="edgeStyle=orthogonalEdgeStyle;rounded=0;orthogonalLoop=1;jettySize=auto;html=1;" edge="1" parent="WIyWlLk6GJQsqaUBKTNV-1" source="WIyWlLk6GJQsqaUBKTNV-7">
          <mxGeometry relative="1" as="geometry">
            <mxPoint x="319" y="512" as="targetPoint" />
            <Array as="points">
              <mxPoint x="419" y="512" />
            </Array>
          </mxGeometry>
        </mxCell>
        <mxCell id="WIyWlLk6GJQsqaUBKTNV-7" value="attendre" style="rounded=1;whiteSpace=wrap;html=1;fontSize=12;glass=0;strokeWidth=1;shadow=0;" parent="WIyWlLk6GJQsqaUBKTNV-1" vertex="1">
          <mxGeometry x="349" y="582" width="120" height="40" as="geometry" />
        </mxCell>
        <mxCell id="WIyWlLk6GJQsqaUBKTNV-8" value="non" style="rounded=0;html=1;jettySize=auto;orthogonalLoop=1;fontSize=11;endArrow=block;endFill=0;endSize=8;strokeWidth=1;shadow=0;labelBackgroundColor=none;edgeStyle=orthogonalEdgeStyle;" parent="WIyWlLk6GJQsqaUBKTNV-1" source="WIyWlLk6GJQsqaUBKTNV-10" target="WIyWlLk6GJQsqaUBKTNV-11" edge="1">
          <mxGeometry x="-0.9592" y="25" relative="1" as="geometry">
            <mxPoint x="1" as="offset" />
            <Array as="points">
              <mxPoint x="419" y="947" />
              <mxPoint x="419" y="947" />
            </Array>
          </mxGeometry>
        </mxCell>
        <mxCell id="WIyWlLk6GJQsqaUBKTNV-9" value="Yes" style="edgeStyle=orthogonalEdgeStyle;rounded=0;html=1;jettySize=auto;orthogonalLoop=1;fontSize=11;endArrow=block;endFill=0;endSize=8;strokeWidth=1;shadow=0;labelBackgroundColor=none;" parent="WIyWlLk6GJQsqaUBKTNV-1" source="WIyWlLk6GJQsqaUBKTNV-10" target="WIyWlLk6GJQsqaUBKTNV-12" edge="1">
          <mxGeometry x="-0.8182" y="20" relative="1" as="geometry">
            <mxPoint as="offset" />
          </mxGeometry>
        </mxCell>
        <mxCell id="WIyWlLk6GJQsqaUBKTNV-10" value="Volonter de pauser ?" style="rhombus;whiteSpace=wrap;html=1;shadow=0;fontFamily=Helvetica;fontSize=12;align=center;strokeWidth=1;spacing=6;spacingTop=-4;" parent="WIyWlLk6GJQsqaUBKTNV-1" vertex="1">
          <mxGeometry x="104" y="892" width="110" height="110" as="geometry" />
        </mxCell>
        <mxCell id="tHZ1R3sbHxkFijD3upq8-30" style="rounded=0;orthogonalLoop=1;jettySize=auto;html=1;endArrow=none;endFill=0;" edge="1" parent="WIyWlLk6GJQsqaUBKTNV-1" source="WIyWlLk6GJQsqaUBKTNV-11">
          <mxGeometry relative="1" as="geometry">
            <mxPoint x="729" y="947" as="targetPoint" />
          </mxGeometry>
        </mxCell>
        <mxCell id="WIyWlLk6GJQsqaUBKTNV-11" value="Pioche" style="rounded=1;whiteSpace=wrap;html=1;fontSize=12;glass=0;strokeWidth=1;shadow=0;" parent="WIyWlLk6GJQsqaUBKTNV-1" vertex="1">
          <mxGeometry x="459" y="927" width="120" height="40" as="geometry" />
        </mxCell>
        <mxCell id="tHZ1R3sbHxkFijD3upq8-7" style="edgeStyle=orthogonalEdgeStyle;rounded=0;orthogonalLoop=1;jettySize=auto;html=1;entryX=0.5;entryY=0;entryDx=0;entryDy=0;" edge="1" parent="WIyWlLk6GJQsqaUBKTNV-1" source="tHZ1R3sbHxkFijD3upq8-21" target="tHZ1R3sbHxkFijD3upq8-6">
          <mxGeometry relative="1" as="geometry">
            <mxPoint x="159" y="1202" as="targetPoint" />
          </mxGeometry>
        </mxCell>
        <mxCell id="WIyWlLk6GJQsqaUBKTNV-12" value="pose sur la table" style="rounded=1;whiteSpace=wrap;html=1;fontSize=12;glass=0;strokeWidth=1;shadow=0;" parent="WIyWlLk6GJQsqaUBKTNV-1" vertex="1">
          <mxGeometry x="99" y="1052" width="120" height="40" as="geometry" />
        </mxCell>
        <mxCell id="tHZ1R3sbHxkFijD3upq8-1" value="" style="endArrow=none;html=1;rounded=0;" edge="1" parent="WIyWlLk6GJQsqaUBKTNV-1">
          <mxGeometry width="50" height="50" relative="1" as="geometry">
            <mxPoint x="159" y="512" as="sourcePoint" />
            <mxPoint x="319" y="512" as="targetPoint" />
          </mxGeometry>
        </mxCell>
        <mxCell id="tHZ1R3sbHxkFijD3upq8-41" style="edgeStyle=orthogonalEdgeStyle;rounded=0;orthogonalLoop=1;jettySize=auto;html=1;exitX=0.5;exitY=1;exitDx=0;exitDy=0;" edge="1" parent="WIyWlLk6GJQsqaUBKTNV-1" source="tHZ1R3sbHxkFijD3upq8-4">
          <mxGeometry relative="1" as="geometry">
            <mxPoint x="159.81818181818153" y="560" as="targetPoint" />
          </mxGeometry>
        </mxCell>
        <mxCell id="tHZ1R3sbHxkFijD3upq8-4" value="" style="ellipse;whiteSpace=wrap;html=1;aspect=fixed;fillColor=#000000;" vertex="1" parent="WIyWlLk6GJQsqaUBKTNV-1">
          <mxGeometry x="139" y="60" width="40" height="40" as="geometry" />
        </mxCell>
        <mxCell id="tHZ1R3sbHxkFijD3upq8-9" style="edgeStyle=orthogonalEdgeStyle;rounded=0;orthogonalLoop=1;jettySize=auto;html=1;entryX=0.5;entryY=1;entryDx=0;entryDy=0;" edge="1" parent="WIyWlLk6GJQsqaUBKTNV-1" source="tHZ1R3sbHxkFijD3upq8-6" target="WIyWlLk6GJQsqaUBKTNV-11">
          <mxGeometry relative="1" as="geometry">
            <mxPoint x="-41" y="1132" as="targetPoint" />
            <Array as="points">
              <mxPoint x="519" y="1266" />
            </Array>
          </mxGeometry>
        </mxCell>
        <mxCell id="tHZ1R3sbHxkFijD3upq8-13" style="edgeStyle=orthogonalEdgeStyle;rounded=0;orthogonalLoop=1;jettySize=auto;html=1;entryX=0;entryY=0.5;entryDx=0;entryDy=0;exitX=0.5;exitY=1;exitDx=0;exitDy=0;" edge="1" parent="WIyWlLk6GJQsqaUBKTNV-1" source="tHZ1R3sbHxkFijD3upq8-6" target="tHZ1R3sbHxkFijD3upq8-12">
          <mxGeometry relative="1" as="geometry" />
        </mxCell>
        <mxCell id="tHZ1R3sbHxkFijD3upq8-6" value="Table valide" style="rhombus;whiteSpace=wrap;html=1;shadow=0;fontFamily=Helvetica;fontSize=12;align=center;strokeWidth=1;spacing=6;spacingTop=-4;" vertex="1" parent="WIyWlLk6GJQsqaUBKTNV-1">
          <mxGeometry x="104" y="1211" width="110" height="110" as="geometry" />
        </mxCell>
        <mxCell id="tHZ1R3sbHxkFijD3upq8-10" value="oui" style="text;html=1;align=center;verticalAlign=middle;resizable=0;points=[];autosize=1;strokeColor=none;fillColor=none;" vertex="1" parent="WIyWlLk6GJQsqaUBKTNV-1">
          <mxGeometry x="159" y="1312" width="40" height="30" as="geometry" />
        </mxCell>
        <mxCell id="tHZ1R3sbHxkFijD3upq8-11" value="non" style="text;html=1;align=center;verticalAlign=middle;resizable=0;points=[];autosize=1;strokeColor=none;fillColor=none;" vertex="1" parent="WIyWlLk6GJQsqaUBKTNV-1">
          <mxGeometry x="219" y="1242" width="40" height="30" as="geometry" />
        </mxCell>
        <mxCell id="tHZ1R3sbHxkFijD3upq8-14" style="edgeStyle=orthogonalEdgeStyle;rounded=0;orthogonalLoop=1;jettySize=auto;html=1;" edge="1" parent="WIyWlLk6GJQsqaUBKTNV-1" source="tHZ1R3sbHxkFijD3upq8-12">
          <mxGeometry relative="1" as="geometry">
            <mxPoint x="294" y="1522" as="targetPoint" />
          </mxGeometry>
        </mxCell>
        <mxCell id="tHZ1R3sbHxkFijD3upq8-15" style="edgeStyle=orthogonalEdgeStyle;rounded=0;orthogonalLoop=1;jettySize=auto;html=1;entryX=1;entryY=0.5;entryDx=0;entryDy=0;" edge="1" parent="WIyWlLk6GJQsqaUBKTNV-1" source="tHZ1R3sbHxkFijD3upq8-12" target="WIyWlLk6GJQsqaUBKTNV-7">
          <mxGeometry relative="1" as="geometry">
            <Array as="points">
              <mxPoint x="729" y="1406" />
              <mxPoint x="729" y="602" />
            </Array>
          </mxGeometry>
        </mxCell>
        <mxCell id="tHZ1R3sbHxkFijD3upq8-12" value="Tuile dans la&lt;div&gt;main ?&lt;/div&gt;" style="rhombus;whiteSpace=wrap;html=1;shadow=0;fontFamily=Helvetica;fontSize=12;align=center;strokeWidth=1;spacing=6;spacingTop=-4;" vertex="1" parent="WIyWlLk6GJQsqaUBKTNV-1">
          <mxGeometry x="239" y="1351" width="110" height="110" as="geometry" />
        </mxCell>
        <mxCell id="tHZ1R3sbHxkFijD3upq8-16" value="oui" style="text;html=1;align=center;verticalAlign=middle;resizable=0;points=[];autosize=1;strokeColor=none;fillColor=none;" vertex="1" parent="WIyWlLk6GJQsqaUBKTNV-1">
          <mxGeometry x="349" y="1372" width="40" height="30" as="geometry" />
        </mxCell>
        <mxCell id="tHZ1R3sbHxkFijD3upq8-17" value="non" style="text;html=1;align=center;verticalAlign=middle;resizable=0;points=[];autosize=1;strokeColor=none;fillColor=none;" vertex="1" parent="WIyWlLk6GJQsqaUBKTNV-1">
          <mxGeometry x="289" y="1461" width="40" height="30" as="geometry" />
        </mxCell>
        <mxCell id="tHZ1R3sbHxkFijD3upq8-22" value="" style="edgeStyle=orthogonalEdgeStyle;rounded=0;orthogonalLoop=1;jettySize=auto;html=1;entryX=0.5;entryY=0;entryDx=0;entryDy=0;" edge="1" parent="WIyWlLk6GJQsqaUBKTNV-1" source="WIyWlLk6GJQsqaUBKTNV-12" target="tHZ1R3sbHxkFijD3upq8-21">
          <mxGeometry relative="1" as="geometry">
            <mxPoint x="159" y="1211" as="targetPoint" />
            <mxPoint x="159" y="1092" as="sourcePoint" />
          </mxGeometry>
        </mxCell>
        <mxCell id="tHZ1R3sbHxkFijD3upq8-21" value="Validation de la table" style="rounded=1;whiteSpace=wrap;html=1;fontSize=12;glass=0;strokeWidth=1;shadow=0;" vertex="1" parent="WIyWlLk6GJQsqaUBKTNV-1">
          <mxGeometry x="99" y="1132" width="120" height="40" as="geometry" />
        </mxCell>
        <mxCell id="tHZ1R3sbHxkFijD3upq8-23" value="" style="ellipse;whiteSpace=wrap;html=1;aspect=fixed;fillColor=#FFFFFF;" vertex="1" parent="WIyWlLk6GJQsqaUBKTNV-1">
          <mxGeometry x="274" y="1522" width="40" height="40" as="geometry" />
        </mxCell>
        <mxCell id="tHZ1R3sbHxkFijD3upq8-25" value="" style="rounded=0;html=1;jettySize=auto;orthogonalLoop=1;fontSize=11;endArrow=block;endFill=0;endSize=8;strokeWidth=1;shadow=0;labelBackgroundColor=none;edgeStyle=orthogonalEdgeStyle;" edge="1" parent="WIyWlLk6GJQsqaUBKTNV-1" source="WIyWlLk6GJQsqaUBKTNV-6" target="tHZ1R3sbHxkFijD3upq8-24">
          <mxGeometry x="-0.8844" y="20" relative="1" as="geometry">
            <mxPoint as="offset" />
            <mxPoint x="159" y="642" as="sourcePoint" />
            <mxPoint x="159" y="815" as="targetPoint" />
          </mxGeometry>
        </mxCell>
        <mxCell id="tHZ1R3sbHxkFijD3upq8-26" style="edgeStyle=orthogonalEdgeStyle;rounded=0;orthogonalLoop=1;jettySize=auto;html=1;entryX=0;entryY=0.5;entryDx=0;entryDy=0;" edge="1" parent="WIyWlLk6GJQsqaUBKTNV-1" source="tHZ1R3sbHxkFijD3upq8-24" target="tHZ1R3sbHxkFijD3upq8-27">
          <mxGeometry relative="1" as="geometry">
            <mxPoint x="249" y="757" as="targetPoint" />
          </mxGeometry>
        </mxCell>
        <mxCell id="tHZ1R3sbHxkFijD3upq8-24" value="premier tour ?" style="rhombus;whiteSpace=wrap;html=1;shadow=0;fontFamily=Helvetica;fontSize=12;align=center;strokeWidth=1;spacing=6;spacingTop=-4;" vertex="1" parent="WIyWlLk6GJQsqaUBKTNV-1">
          <mxGeometry x="104" y="702" width="110" height="110" as="geometry" />
        </mxCell>
        <mxCell id="tHZ1R3sbHxkFijD3upq8-29" style="edgeStyle=orthogonalEdgeStyle;rounded=0;orthogonalLoop=1;jettySize=auto;html=1;entryX=0;entryY=0.5;entryDx=0;entryDy=0;" edge="1" parent="WIyWlLk6GJQsqaUBKTNV-1" source="tHZ1R3sbHxkFijD3upq8-27" target="tHZ1R3sbHxkFijD3upq8-28">
          <mxGeometry relative="1" as="geometry" />
        </mxCell>
        <mxCell id="tHZ1R3sbHxkFijD3upq8-27" value="Poser set" style="rounded=1;whiteSpace=wrap;html=1;fontSize=12;glass=0;strokeWidth=1;shadow=0;" vertex="1" parent="WIyWlLk6GJQsqaUBKTNV-1">
          <mxGeometry x="279" y="737" width="120" height="40" as="geometry" />
        </mxCell>
        <mxCell id="tHZ1R3sbHxkFijD3upq8-28" value="unique set de plus de 30 points valide&amp;nbsp;" style="rhombus;whiteSpace=wrap;html=1;shadow=0;fontFamily=Helvetica;fontSize=12;align=center;strokeWidth=1;spacing=6;spacingTop=-4;" vertex="1" parent="WIyWlLk6GJQsqaUBKTNV-1">
          <mxGeometry x="444" y="672" width="150" height="170" as="geometry" />
        </mxCell>
        <mxCell id="tHZ1R3sbHxkFijD3upq8-31" value="" style="endArrow=classic;html=1;rounded=0;entryX=0.5;entryY=0;entryDx=0;entryDy=0;exitX=0.5;exitY=1;exitDx=0;exitDy=0;" edge="1" parent="WIyWlLk6GJQsqaUBKTNV-1" source="tHZ1R3sbHxkFijD3upq8-28" target="WIyWlLk6GJQsqaUBKTNV-11">
          <mxGeometry width="50" height="50" relative="1" as="geometry">
            <mxPoint x="409" y="922" as="sourcePoint" />
            <mxPoint x="459" y="872" as="targetPoint" />
          </mxGeometry>
        </mxCell>
        <mxCell id="tHZ1R3sbHxkFijD3upq8-32" value="" style="endArrow=none;html=1;rounded=0;entryX=1;entryY=0.5;entryDx=0;entryDy=0;" edge="1" parent="WIyWlLk6GJQsqaUBKTNV-1" target="tHZ1R3sbHxkFijD3upq8-28">
          <mxGeometry width="50" height="50" relative="1" as="geometry">
            <mxPoint x="729" y="757" as="sourcePoint" />
            <mxPoint x="399" y="722" as="targetPoint" />
          </mxGeometry>
        </mxCell>
        <mxCell id="tHZ1R3sbHxkFijD3upq8-33" value="oui" style="text;html=1;align=center;verticalAlign=middle;resizable=0;points=[];autosize=1;strokeColor=none;fillColor=none;" vertex="1" parent="WIyWlLk6GJQsqaUBKTNV-1">
          <mxGeometry x="589" y="720" width="40" height="30" as="geometry" />
        </mxCell>
        <mxCell id="tHZ1R3sbHxkFijD3upq8-34" value="Non" style="text;html=1;align=center;verticalAlign=middle;resizable=0;points=[];autosize=1;strokeColor=none;fillColor=none;" vertex="1" parent="WIyWlLk6GJQsqaUBKTNV-1">
          <mxGeometry x="479" y="832" width="50" height="30" as="geometry" />
        </mxCell>
        <mxCell id="tHZ1R3sbHxkFijD3upq8-35" value="Début de partie" style="rounded=1;whiteSpace=wrap;html=1;fontSize=12;glass=0;strokeWidth=1;shadow=0;" vertex="1" parent="WIyWlLk6GJQsqaUBKTNV-1">
          <mxGeometry x="99" y="135" width="120" height="40" as="geometry" />
        </mxCell>
        <mxCell id="tHZ1R3sbHxkFijD3upq8-36" value="nombre des joueurs" style="rounded=1;whiteSpace=wrap;html=1;fontSize=12;glass=0;strokeWidth=1;shadow=0;" vertex="1" parent="WIyWlLk6GJQsqaUBKTNV-1">
          <mxGeometry x="102" y="215" width="120" height="40" as="geometry" />
        </mxCell>
        <mxCell id="tHZ1R3sbHxkFijD3upq8-37" value="Distribution" style="rounded=1;whiteSpace=wrap;html=1;fontSize=12;glass=0;strokeWidth=1;shadow=0;" vertex="1" parent="WIyWlLk6GJQsqaUBKTNV-1">
          <mxGeometry x="104" y="315" width="120" height="40" as="geometry" />
        </mxCell>
        <mxCell id="tHZ1R3sbHxkFijD3upq8-38" value="Ordonner la pârtie" style="rounded=1;whiteSpace=wrap;html=1;fontSize=12;glass=0;strokeWidth=1;shadow=0;" vertex="1" parent="WIyWlLk6GJQsqaUBKTNV-1">
          <mxGeometry x="104" y="395" width="120" height="40" as="geometry" />
        </mxCell>
        <mxCell id="tHZ1R3sbHxkFijD3upq8-40" value="" style="endArrow=classic;html=1;rounded=0;" edge="1" parent="WIyWlLk6GJQsqaUBKTNV-1">
          <mxGeometry width="50" height="50" relative="1" as="geometry">
            <mxPoint x="180" y="750" as="sourcePoint" />
            <mxPoint x="230" y="700" as="targetPoint" />
          </mxGeometry>
        </mxCell>
      </root>
    </mxGraphModel>
  </diagram>
</mxfile>
